<svg xmlns="http://www.w3.org/2000/svg" viewBox="0 0 512 512">
    <style type="text/css">.st0{fill:#000000;}</style>
    <path class="st0" d="M511.9 221.5c-0.9-12-6.5-22.9-15.6-30.7l-44.3-38V44.9c0-8.3-6.7-15-15-15h-60c-8.3 0-14.8 6.7-14.8 15v30.7l-75.9-64.7c-17-14.5-41.6-14.5-58.5 0L15.7 190.8c-18.8 16.1-21.2 44.4-4.9 63.5 12.4 14.5 32.4 19.1 49.4 13.1v229.6c0 8.3 6.5 15 14.8 15h362c8.3 0 15-6.7 15-15V267.4c17.5 6.2 37 1 49.2-13.1C509 245.1 512.8 233.5 511.9 221.5zM392 59.9h30.2v67.2l-30.2-25.7V59.9zM317.2 481.9H195V361.7h122.2V481.9zM422.2 481.9h-75.2V346.9c0-8.3-6.7-15-15-15H180c-8.3 0-14.8 6.7-14.8 15v135H90V245.8l166.9-141.6 165.2 141.5V481.9zM478.4 234.7c-5.3 6.2-14.8 7.1-21.2 1.6L266.8 73.1c-5.6-4.8-13.8-4.8-19.5 0C243.2 76.5 55.6 235.6 54.8 236.3c-6.3 5.4-15.8 4.6-21.2-1.6 -5.4-6.3-4.7-15.8 1.6-21.1L247.2 33.8c5.7-4.8 13.9-4.8 19.5 0l210 179.8C483 218.9 483.8 228.4 478.4 234.7z"/>
    <path class="st0" d="M302 179.9h-92c-8.3 0-14.8 6.7-14.8 15v90c0 8.3 6.5 15 14.8 15h92c8.3 0 15-6.7 15-15v-90C317 186.7 310.3 179.9 302 179.9zM287.2 269.9h-62.2v-60h62.2V269.9z"/>
    <circle class="st0" cx="272" cy="406.9" r="15"/>
</svg>
