<svg xmlns="http://www.w3.org/2000/svg" viewBox="0 0 551.1 551.1" width="512" height="512">
    <style type="text/css">.st0 { fill: #1E88C3; }</style>
    <path class="st0" d="m68.9 275.6c0-102.1 74.7-186.4 172.2-202.9v30.7l68.9-51.7-68.9-51.7v37.2c-116.7 16.8-206.7 117.1-206.7 238.3 0 87.1 46.6 163.4 116 205.7l29.9-22.5c-66.2-34.5-111.5-103.6-111.5-183.3z"/>
    <path class="st0" d="m516.7 275.6c0-87.1-46.6-163.4-116-205.7l-29.9 22.5c66.2 34.5 111.5 103.6 111.5 183.3 0 102.2-74.7 186.7-172.2 203.2v-30.9l-68.9 51.7 68.9 51.7v-37.3c116.6-16.8 206.7-117.1 206.7-238.3z"/>
</svg>
