<svg width="23" height="27" viewBox="0 0 23 27" fill="none" xmlns="http://www.w3.org/2000/svg">
<path fill-rule="evenodd" clip-rule="evenodd" d="M8.29339 5.56098C8.29339 4.00622 9.55572 2.74583 11.1129 2.74583C12.67 2.74583 13.9324 4.00622 13.9324 5.56098C13.9324 7.11575 12.67 8.37613 11.1129 8.37613C9.55572 8.37613 8.29339 7.11575 8.29339 5.56098ZM11.1129 0.208008C8.15196 0.208008 5.75166 2.60462 5.75166 5.56098C5.75166 8.51735 8.15196 10.914 11.1129 10.914C14.0738 10.914 16.4741 8.51735 16.4741 5.56098C16.4741 2.60462 14.0738 0.208008 11.1129 0.208008ZM0 21.7594C0 21.6233 0.00325125 21.4879 0.00968042 21.3534V21.235H0.0161735C0.287239 16.854 3.93169 13.3846 8.38771 13.3846H14.6122C19.2446 13.3846 22.9999 17.1341 22.9999 21.7594V22.3933H23L22.9999 22.4186V22.5039C22.9999 22.5443 22.998 22.5842 22.9944 22.6236C22.9713 23.0946 22.8762 23.5924 22.6833 23.9891C22.4673 24.4333 22.1663 24.7724 21.8864 25.0519C21.4531 25.4846 20.8774 25.7604 20.3986 25.9267C19.9076 26.0971 19.3573 26.2078 18.8748 26.2078H3.79402L3.71307 26.2079H3.71305C3.31056 26.2085 2.82225 26.2092 2.36593 26.0843C1.78949 25.9264 1.35806 25.6091 0.956426 25.1976C0.274585 24.4989 0.0396691 23.5572 0.0124313 22.6821C0.00423718 22.6239 0 22.5644 0 22.5039V21.7594ZM2.55141 22.2718V21.4206C2.72713 18.3546 5.27295 15.9224 8.38771 15.9224H14.6122C17.8409 15.9224 20.4582 18.5357 20.4582 21.7594V22.4069C20.4548 22.7416 20.3268 23.1542 20.0515 23.3673C19.7091 23.6325 19.2949 23.67 18.8748 23.67H3.79402C3.75016 23.67 3.70662 23.6706 3.66347 23.6712C3.33561 23.6755 3.03038 23.6796 2.77687 23.4265C2.54214 23.1921 2.54491 22.941 2.54984 22.4936C2.5506 22.4245 2.55141 22.3508 2.55141 22.2718Z" fill="#09122B"/>
</svg>
