<svg width="33" height="32" viewBox="0 0 33 32" fill="none" xmlns="http://www.w3.org/2000/svg">
<path d="M19.5026 8.33941C19.5026 7.88083 19.5026 7.65154 19.4133 7.47638C19.3348 7.32231 19.2096 7.19705 19.0555 7.11854C18.8803 7.0293 18.651 7.0293 18.1925 7.0293H14.808C14.3494 7.0293 14.1201 7.0293 13.945 7.11854C13.7909 7.19705 13.6656 7.32231 13.5871 7.47638C13.4979 7.65154 13.4979 7.88083 13.4979 8.33942V11.7239C13.4979 12.1825 13.4979 12.4118 13.4086 12.5869C13.3301 12.741 13.2049 12.8663 13.0508 12.9448C12.8756 13.034 12.6463 13.034 12.1877 13.034H8.80328C8.3447 13.034 8.11541 13.034 7.94025 13.1232C7.78618 13.2017 7.66091 13.327 7.58241 13.4811C7.49316 13.6562 7.49316 13.8855 7.49316 14.3441V17.7286C7.49316 18.1872 7.49316 18.4165 7.58241 18.5916C7.66091 18.7457 7.78618 18.871 7.94025 18.9495C8.11541 19.0387 8.3447 19.0387 8.80328 19.0387H12.1878C12.6463 19.0387 12.8756 19.0387 13.0508 19.1279C13.2049 19.2065 13.3301 19.3317 13.4086 19.4858C13.4979 19.6609 13.4979 19.8902 13.4979 20.3488V23.7333C13.4979 24.1919 13.4979 24.4212 13.5871 24.5963C13.6656 24.7504 13.7909 24.8757 13.945 24.9542C14.1201 25.0434 14.3494 25.0434 14.808 25.0434H18.1925C18.651 25.0434 18.8803 25.0434 19.0555 24.9542C19.2096 24.8757 19.3348 24.7504 19.4133 24.5963C19.5026 24.4212 19.5026 24.1919 19.5026 23.7333V20.3488C19.5026 19.8902 19.5026 19.6609 19.5918 19.4858C19.6703 19.3317 19.7956 19.2065 19.9497 19.1279C20.1248 19.0387 20.3541 19.0387 20.8127 19.0387H24.1972C24.6557 19.0387 24.885 19.0387 25.0602 18.9495C25.2143 18.871 25.3395 18.7457 25.418 18.5916C25.5073 18.4165 25.5073 18.1872 25.5073 17.7286V14.3441C25.5073 13.8855 25.5073 13.6562 25.418 13.4811C25.3395 13.327 25.2143 13.2017 25.0602 13.1232C24.885 13.034 24.6557 13.034 24.1972 13.034H20.8127C20.3541 13.034 20.1248 13.034 19.9497 12.9448C19.7956 12.8663 19.6703 12.741 19.5918 12.5869C19.5026 12.4118 19.5026 12.1825 19.5026 11.7239V8.33941Z" stroke="black" stroke-width="2.5" stroke-linecap="round" stroke-linejoin="round"/>
<rect x="2" y="1.53613" width="29" height="29" rx="3" stroke="#09122B" stroke-width="2.5" stroke-linejoin="round"/>
</svg>
