<?xml version="1.0" encoding="utf-8"?>
<!-- Generator: Adobe Illustrator 24.1.0, SVG Export Plug-In . SVG Version: 6.00 Build 0)  -->
<svg version="1.1" id="Layer_1" xmlns="http://www.w3.org/2000/svg" xmlns:xlink="http://www.w3.org/1999/xlink" x="0px" y="0px"
	 viewBox="0 0 19.4 19.4" style="enable-background:new 0 0 19.4 19.4;" xml:space="preserve">
<style type="text/css">
	.st0{fill:#79BFDB;}
</style>
<path class="st0" d="M18.7,19.4l-4.1-4.1c-1.6,1.4-3.6,2.2-5.8,2.2C3.9,17.6,0,13.6,0,8.8v0C0,3.9,3.9,0,8.8,0s8.8,3.9,8.8,8.8
	c0,2.2-0.8,4.3-2.2,5.8l4.1,4.1L18.7,19.4z M1,8.8c0,4.3,3.5,7.8,7.8,7.8s7.8-3.5,7.8-7.8S13.1,1,8.8,1S1,4.5,1,8.8L1,8.8z"/>
</svg>
