<?xml version="1.0" encoding="utf-8"?>
<!-- Generator: Adobe Illustrator 24.1.3, SVG Export Plug-In . SVG Version: 6.00 Build 0)  -->
<svg version="1.1" id="Layer_1" xmlns="http://www.w3.org/2000/svg" xmlns:xlink="http://www.w3.org/1999/xlink" x="0px" y="0px"
	 viewBox="0 0 512 512" style="enable-background:new 0 0 512 512;" xml:space="preserve">
<path d="M256,0C114.7,0,0,114.7,0,256s114.7,256,256,256s256-114.7,256-256S397.3,0,256,0z M256,481C131.7,481,31,380.3,31,256
	S131.7,31,256,31s225,100.7,225,225S380.3,481,256,481z"/>
<path d="M412.5,145.3c-9.8-9.8-25.6-9.8-35.4,0L197.5,324.9l-58.5-58.5c-9.8-9.8-25.6-9.8-35.4,0c-9.8,9.8-9.8,25.6,0,35.4
	l71.3,71.3c0.8,0.8,1.7,1.6,2.6,2.3c0.7,0.9,1.5,1.8,2.3,2.6c4.9,4.9,11.3,7.3,17.7,7.3c6.4,0,12.8-2.4,17.7-7.3l197.4-197.3
	C422.3,170.9,422.3,155,412.5,145.3z"/>
</svg>
