<svg width="346" height="33" viewBox="0 0 346 33" fill="none" xmlns="http://www.w3.org/2000/svg">
<path d="M18.7526 8.34967C18.7526 7.89108 18.7526 7.66179 18.6633 7.48664C18.5848 7.33256 18.4596 7.2073 18.3055 7.1288C18.1303 7.03955 17.901 7.03955 17.4425 7.03955H14.058C13.5994 7.03955 13.3701 7.03955 13.195 7.1288C13.0409 7.2073 12.9156 7.33256 12.8371 7.48664C12.7479 7.66179 12.7479 7.89108 12.7479 8.34967V11.7341C12.7479 12.1927 12.7479 12.422 12.6586 12.5972C12.5801 12.7512 12.4549 12.8765 12.3008 12.955C12.1256 13.0443 11.8963 13.0443 11.4377 13.0443H8.05328C7.5947 13.0443 7.36541 13.0443 7.19025 13.1335C7.03618 13.212 6.91091 13.3373 6.83241 13.4913C6.74316 13.6665 6.74316 13.8958 6.74316 14.3544V17.7388C6.74316 18.1974 6.74316 18.4267 6.83241 18.6019C6.91091 18.7559 7.03618 18.8812 7.19025 18.9597C7.36541 19.049 7.5947 19.049 8.05328 19.049H11.4378C11.8963 19.049 12.1256 19.049 12.3008 19.1382C12.4549 19.2167 12.5801 19.342 12.6586 19.496C12.7479 19.6712 12.7479 19.9005 12.7479 20.3591V23.7435C12.7479 24.2021 12.7479 24.4314 12.8371 24.6066C12.9156 24.7606 13.0409 24.8859 13.195 24.9644C13.3701 25.0537 13.5994 25.0537 14.058 25.0537H17.4425C17.901 25.0537 18.1303 25.0537 18.3055 24.9644C18.4596 24.8859 18.5848 24.7606 18.6633 24.6066C18.7526 24.4314 18.7526 24.2021 18.7526 23.7435V20.3591C18.7526 19.9005 18.7526 19.6712 18.8418 19.496C18.9203 19.342 19.0456 19.2167 19.1997 19.1382C19.3748 19.049 19.6041 19.049 20.0627 19.049H23.4472C23.9057 19.049 24.135 19.049 24.3102 18.9597C24.4643 18.8812 24.5895 18.7559 24.668 18.6019C24.7573 18.4267 24.7573 18.1974 24.7573 17.7388V14.3544C24.7573 13.8958 24.7573 13.6665 24.668 13.4913C24.5895 13.3373 24.4643 13.212 24.3102 13.1335C24.135 13.0443 23.9057 13.0443 23.4472 13.0443H20.0627C19.6041 13.0443 19.3748 13.0443 19.1997 12.955C19.0456 12.8765 18.9203 12.7512 18.8418 12.5972C18.7526 12.422 18.7526 12.1927 18.7526 11.7341V8.34967Z" stroke="black" stroke-width="2.5" stroke-linecap="round" stroke-linejoin="round"/>
<rect x="1.25" y="1.54639" width="29" height="29" rx="3" stroke="#09122B" stroke-width="2.5" stroke-linejoin="round"/>
<path d="M44.382 24.0464V5.71639H51.974C53.3087 5.71639 54.4353 5.94172 55.354 6.39239C56.2727 6.82572 56.966 7.45839 57.434 8.29039C57.9193 9.12239 58.162 10.1277 58.162 11.3064C58.162 12.4851 57.9193 13.4991 57.434 14.3484C56.966 15.1804 56.2727 15.8217 55.354 16.2724C54.4353 16.7057 53.3087 16.9224 51.974 16.9224H47.086V24.0464H44.382ZM47.086 14.7644H51.584C52.884 14.7644 53.8633 14.4784 54.522 13.9064C55.198 13.3171 55.536 12.4504 55.536 11.3064C55.536 10.1797 55.198 9.33039 54.522 8.75839C53.8633 8.16905 52.884 7.87439 51.584 7.87439H47.086V14.7644ZM60.2637 24.0464V11.3584H62.8117V14.4004H62.5517C62.8291 13.3604 63.3231 12.5717 64.0337 12.0344C64.7617 11.4971 65.7237 11.1851 66.9197 11.0984L67.7777 11.0464L67.9597 13.2824L66.3737 13.4384C65.2471 13.5424 64.3891 13.8977 63.7997 14.5044C63.2104 15.1111 62.9157 15.9431 62.9157 17.0004V24.0464H60.2637ZM69.469 8.42039V5.69039H72.537V8.42039H69.469ZM69.703 24.0464V11.3584H72.329V24.0464H69.703ZM79.4832 24.0464L74.0232 11.3584H76.8572L81.0952 21.8884H80.3672L84.7092 11.3584H87.3872L81.8492 24.0464H79.4832ZM88.779 8.42039V5.69039H91.847V8.42039H88.779ZM89.013 24.0464V11.3584H91.639V24.0464H89.013ZM99.2093 24.2804C97.8226 24.2804 96.7826 23.8904 96.0893 23.1104C95.4133 22.3131 95.0753 21.1691 95.0753 19.6784V5.71639H97.7013V19.5224C97.7013 20.0771 97.7793 20.5537 97.9353 20.9524C98.0913 21.3337 98.3253 21.6197 98.6373 21.8104C98.9493 22.0011 99.3393 22.0964 99.8073 22.0964C100.015 22.0964 100.215 22.0877 100.405 22.0704C100.596 22.0531 100.778 22.0184 100.951 21.9664L100.899 24.0724C100.605 24.1417 100.319 24.1937 100.041 24.2284C99.764 24.2631 99.4866 24.2804 99.2093 24.2804ZM108.59 24.2804C107.203 24.2804 106.007 24.0204 105.002 23.5004C104.014 22.9631 103.242 22.2091 102.688 21.2384C102.15 20.2504 101.882 19.0804 101.882 17.7284C101.882 16.4111 102.15 15.2584 102.688 14.2704C103.225 13.2824 103.962 12.5111 104.898 11.9564C105.834 11.4017 106.9 11.1244 108.096 11.1244C109.274 11.1244 110.28 11.3844 111.112 11.9044C111.961 12.4071 112.611 13.1264 113.062 14.0624C113.512 14.9984 113.738 16.1164 113.738 17.4164V18.3004H103.962V16.6884H111.97L111.528 17.0524C111.528 15.7524 111.242 14.7471 110.67 14.0364C110.098 13.3257 109.274 12.9704 108.2 12.9704C107.385 12.9704 106.692 13.1611 106.12 13.5424C105.565 13.9237 105.14 14.4524 104.846 15.1284C104.551 15.8044 104.404 16.5931 104.404 17.4944V17.6504C104.404 18.6557 104.56 19.5051 104.872 20.1984C105.201 20.8744 105.678 21.3857 106.302 21.7324C106.926 22.0791 107.697 22.2524 108.616 22.2524C109.344 22.2524 110.054 22.1397 110.748 21.9144C111.458 21.6717 112.126 21.2991 112.75 20.7964L113.53 22.6164C112.958 23.1364 112.221 23.5437 111.32 23.8384C110.418 24.1331 109.508 24.2804 108.59 24.2804ZM122.086 28.9604C120.942 28.9604 119.876 28.8217 118.888 28.5444C117.9 28.2671 117.025 27.8511 116.262 27.2964L117.068 25.4244C117.571 25.7537 118.082 26.0311 118.602 26.2564C119.14 26.4991 119.677 26.6724 120.214 26.7764C120.769 26.8804 121.332 26.9324 121.904 26.9324C123.118 26.9324 124.028 26.6204 124.634 25.9964C125.241 25.3897 125.544 24.4884 125.544 23.2924V20.6404H125.778C125.518 21.5937 124.972 22.3477 124.14 22.9024C123.308 23.4571 122.346 23.7344 121.254 23.7344C120.11 23.7344 119.114 23.4744 118.264 22.9544C117.415 22.4171 116.756 21.6804 116.288 20.7444C115.82 19.7911 115.586 18.6817 115.586 17.4164C115.586 16.1511 115.82 15.0504 116.288 14.1144C116.756 13.1784 117.415 12.4504 118.264 11.9304C119.114 11.3931 120.11 11.1244 121.254 11.1244C122.364 11.1244 123.326 11.4017 124.14 11.9564C124.972 12.5111 125.51 13.2651 125.752 14.2184H125.544V11.3584H128.092V22.9804C128.092 24.2977 127.867 25.3984 127.416 26.2824C126.966 27.1837 126.29 27.8511 125.388 28.2844C124.504 28.7351 123.404 28.9604 122.086 28.9604ZM121.878 21.6804C123.005 21.6804 123.889 21.2991 124.53 20.5364C125.189 19.7737 125.518 18.7337 125.518 17.4164C125.518 16.1164 125.189 15.0851 124.53 14.3224C123.889 13.5597 123.005 13.1784 121.878 13.1784C120.769 13.1784 119.885 13.5597 119.226 14.3224C118.568 15.0851 118.238 16.1164 118.238 17.4164C118.238 18.7337 118.568 19.7737 119.226 20.5364C119.885 21.2991 120.769 21.6804 121.878 21.6804ZM137.472 24.2804C136.085 24.2804 134.889 24.0204 133.884 23.5004C132.896 22.9631 132.125 22.2091 131.57 21.2384C131.033 20.2504 130.764 19.0804 130.764 17.7284C130.764 16.4111 131.033 15.2584 131.57 14.2704C132.107 13.2824 132.844 12.5111 133.78 11.9564C134.716 11.4017 135.782 11.1244 136.978 11.1244C138.157 11.1244 139.162 11.3844 139.994 11.9044C140.843 12.4071 141.493 13.1264 141.944 14.0624C142.395 14.9984 142.62 16.1164 142.62 17.4164V18.3004H132.844V16.6884H140.852L140.41 17.0524C140.41 15.7524 140.124 14.7471 139.552 14.0364C138.98 13.3257 138.157 12.9704 137.082 12.9704C136.267 12.9704 135.574 13.1611 135.002 13.5424C134.447 13.9237 134.023 14.4524 133.728 15.1284C133.433 15.8044 133.286 16.5931 133.286 17.4944V17.6504C133.286 18.6557 133.442 19.5051 133.754 20.1984C134.083 20.8744 134.56 21.3857 135.184 21.7324C135.808 22.0791 136.579 22.2524 137.498 22.2524C138.226 22.2524 138.937 22.1397 139.63 21.9144C140.341 21.6717 141.008 21.2991 141.632 20.7964L142.412 22.6164C141.84 23.1364 141.103 23.5437 140.202 23.8384C139.301 24.1331 138.391 24.2804 137.472 24.2804ZM149.669 24.2804C148.993 24.2804 148.334 24.2197 147.693 24.0984C147.051 23.9771 146.462 23.8037 145.925 23.5784C145.387 23.3531 144.911 23.0757 144.495 22.7464L145.249 20.9784C145.682 21.2731 146.141 21.5331 146.627 21.7584C147.112 21.9664 147.615 22.1224 148.135 22.2264C148.672 22.3304 149.192 22.3824 149.695 22.3824C150.613 22.3824 151.307 22.2177 151.775 21.8884C152.243 21.5591 152.477 21.1171 152.477 20.5624C152.477 20.1117 152.321 19.7651 152.009 19.5224C151.697 19.2624 151.229 19.0631 150.605 18.9244L148.135 18.4304C147.06 18.2051 146.245 17.8064 145.691 17.2344C145.136 16.6624 144.859 15.9344 144.859 15.0504C144.859 14.2531 145.075 13.5597 145.509 12.9704C145.942 12.3811 146.549 11.9304 147.329 11.6184C148.109 11.2891 149.01 11.1244 150.033 11.1244C150.622 11.1244 151.194 11.1851 151.749 11.3064C152.303 11.4277 152.823 11.6011 153.309 11.8264C153.811 12.0517 154.236 12.3377 154.583 12.6844L153.829 14.4524C153.499 14.1577 153.118 13.9064 152.685 13.6984C152.269 13.4904 151.835 13.3344 151.385 13.2304C150.934 13.1091 150.483 13.0484 150.033 13.0484C149.114 13.0484 148.421 13.2217 147.953 13.5684C147.502 13.8977 147.277 14.3484 147.277 14.9204C147.277 15.3537 147.415 15.7091 147.693 15.9864C147.97 16.2637 148.403 16.4631 148.993 16.5844L151.463 17.0784C152.589 17.3037 153.439 17.6851 154.011 18.2224C154.6 18.7597 154.895 19.4877 154.895 20.4064C154.895 21.2037 154.678 21.8971 154.245 22.4864C153.811 23.0757 153.196 23.5264 152.399 23.8384C151.619 24.1331 150.709 24.2804 149.669 24.2804Z" fill="#09122B"/>
<circle cx="168.398" cy="8.04639" r="6.14795" stroke="#767676"/>
<path d="M169.721 9.77988L167.714 9.15483V5.05615" stroke="#767676" stroke-linecap="round" stroke-linejoin="round"/>
</svg>
