<?xml version="1.0" encoding="utf-8"?>
<!-- Generator: Adobe Illustrator 24.1.3, SVG Export Plug-In . SVG Version: 6.00 Build 0)  -->
<svg version="1.1" id="Layer_1" xmlns="http://www.w3.org/2000/svg" xmlns:xlink="http://www.w3.org/1999/xlink" x="0px" y="0px"
	 viewBox="0 0 512 512" style="enable-background:new 0 0 512 512;" xml:space="preserve">
<style type="text/css">
	.st0{fill:#FFFFFF;}
</style>
<circle id="Outer_Circle" cx="256.4" cy="256.4" r="255.6"/>
<circle id="Inner_Circle" cx="256.4" cy="256.4" r="164.9"/>
<g id="House">
	<path class="st0" d="M313.9,341.4h-59.6v-88.2h59.6V341.4z M262.2,333.5h43.9V261h-43.9V333.5z"/>
	<path class="st0" d="M236.3,288.2h-35.1v-35.1h35.1V288.2z M209,280.4h19.4V261H209V280.4z"/>
	<g>
		<rect x="258.3" y="337.4" class="st0" width="51.8" height="19.1"/>
		<path class="st0" d="M313.9,360.4h-59.6v-26.9h59.6V360.4z M262.2,352.6h43.9v-11.2h-43.9V352.6z"/>
	</g>
	<circle class="st0" cx="291.2" cy="298.8" r="3.9"/>
	<polygon class="st0" points="171.5,247.2 166,241.6 256.4,150.8 346.9,241.6 341.3,247.2 256.4,161.9 	"/>
	<polygon class="st0" points="333.1,341.4 182.1,341.4 182.1,227 190,227 190,333.5 325.3,333.5 325.3,229.4 333.1,229.4 	"/>
</g>
</svg>
