<?xml version="1.0" encoding="utf-8"?>
<!-- Generator: Adobe Illustrator 24.1.0, SVG Export Plug-In . SVG Version: 6.00 Build 0)  -->
<svg version="1.1" id="Layer_1" xmlns="http://www.w3.org/2000/svg" xmlns:xlink="http://www.w3.org/1999/xlink" x="0px" y="0px"
	 viewBox="0 0 27.1 30.9" style="enable-background:new 0 0 27.1 30.9;" xml:space="preserve">
<style type="text/css">
	.st0{fill:#1C7CB0;}
</style>
<path class="st0" d="M13.7,30.9c-0.9,0-1.7-0.3-2.4-1c-0.6-0.6-1-1.5-1-2.4l1,0c0,0.6,0.2,1.2,0.7,1.7c0.4,0.4,1,0.7,1.7,0.7
	c0,0,0,0,0,0c0.6,0,1.2-0.2,1.7-0.7s0.7-1,0.7-1.7c0-0.3,0.2-0.5,0.5-0.5c0,0,0,0,0,0c0.3,0,0.5,0.2,0.5,0.5c0,0.9-0.3,1.7-1,2.4
	C15.5,30.6,14.6,30.9,13.7,30.9C13.7,30.9,13.7,30.9,13.7,30.9z"/>
<path class="st0" d="M25.3,26.7H1.7c-0.8,0-1.5-0.7-1.5-1.5c0-0.4,0.2-0.8,0.4-1.1c1.6-1.6,2.4-3.6,2.4-5.8v-4.9
	C3,8.9,6,4.8,10.2,3.4c0-1.8,1.4-3.2,3.2-3.4c1.9-0.1,3.4,1.3,3.5,3.2c0,0.1,0,0.1,0,0.2v0c4.2,1.4,7.1,5.5,7.1,9.9v4.9
	c0,2.2,0.9,4.3,2.4,5.8l0.3,0.3c0.1,0.1,0.2,0.3,0.1,0.4v0.4C26.9,26,26.2,26.7,25.3,26.7z M13.5,1c0,0-0.1,0-0.1,0
	c-1.3,0.1-2.3,1.2-2.2,2.5v0.6l-0.4,0.1c-4,1.2-6.8,4.9-6.8,9.1v4.9c0,2.5-1,4.8-2.7,6.5c-0.1,0.1-0.1,0.2-0.1,0.4
	c0,0.3,0.2,0.5,0.5,0.5h23.6c0.3,0,0.5-0.2,0.5-0.5v-0.2l-0.1-0.1C24,23,23,20.7,23,18.3v-4.9c0-4.2-2.8-7.9-6.8-9.1l-0.4-0.1l0-0.9
	C15.8,2,14.8,1,13.5,1z"/>
<path class="st0" d="M26.6,13.8L26.6,13.8c-0.3,0-0.5-0.2-0.5-0.5c0-3.3-1.3-6.5-3.7-8.8c-0.2-0.2-0.2-0.5,0-0.7s0.5-0.2,0.7,0
	c2.5,2.5,4,5.9,3.9,9.5C27.1,13.6,26.8,13.8,26.6,13.8z"/>
<path class="st0" d="M0.5,13.8c-0.3,0-0.5-0.2-0.5-0.5c0-3.5,1.4-7,3.9-9.5c0.2-0.2,0.5-0.2,0.7,0c0.2,0.2,0.2,0.5,0,0.7
	C2.3,6.9,1,10.1,1,13.3C1,13.6,0.8,13.8,0.5,13.8L0.5,13.8z"/>
</svg>
