<?xml version="1.0" encoding="utf-8"?>
<!-- Generator: Adobe Illustrator 24.1.0, SVG Export Plug-In . SVG Version: 6.00 Build 0)  -->
<svg version="1.1" id="Layer_1" xmlns="http://www.w3.org/2000/svg" xmlns:xlink="http://www.w3.org/1999/xlink" x="0px" y="0px"
	 viewBox="0 0 30.5 30.5" style="enable-background:new 0 0 30.5 30.5;" xml:space="preserve">
<style type="text/css">
	.st0{fill:#959695;}
</style>
<path class="st0" d="M15.2,30.5c-0.1,0-0.2,0-0.3,0l-0.1,0c-4-0.1-7.8-1.8-10.6-4.7S-0.1,19,0,14.9C0.3,6.5,7.3-0.2,15.7,0l0.1,0
	c4,0.1,7.8,1.8,10.5,4.7c2.8,2.9,4.3,6.8,4.2,10.8c-0.1,2.9-0.9,5.7-2.6,8.1l2.3,6.1l-5.9-2.3C21.8,29.4,18.5,30.5,15.2,30.5z
	 M15.4,1C7.6,1,1.2,7.2,1,15c-0.1,3.8,1.3,7.4,3.9,10.1c2.6,2.7,6.2,4.3,10,4.4l0,0.5l0-0.5c3.3,0.1,6.5-1,9.1-3l0.2-0.2l4.3,1.7
	l-1.7-4.5l0.2-0.2c1.6-2.3,2.5-5,2.5-7.7c0.1-3.8-1.3-7.4-3.9-10.1C23,2.7,19.5,1.1,15.7,1l-0.1,0C15.5,1,15.4,1,15.4,1z"/>
</svg>
