<svg xmlns="http://www.w3.org/2000/svg" width="116.424" height="107.036" viewBox="0 0 116.424 107.036">
  <g id="ico_morning" transform="translate(-85.5 1)">
    <g id="Group_2450" data-name="Group 2450" transform="translate(947.5 477)">
      <circle id="Ellipse_64" data-name="Ellipse 64" cx="11.5" cy="11.5" r="11.5" transform="translate(-851.5 -467.5)" fill="none" stroke="#f9b625" stroke-linejoin="round" stroke-width="2"/>
      <line id="Line_213" data-name="Line 213" x2="3" transform="translate(-823 -456)" fill="none" stroke="#f9b625" stroke-linecap="round" stroke-linejoin="round" stroke-width="2"/>
      <line id="Line_214" data-name="Line 214" x2="4" transform="translate(-823 -456)" fill="none" stroke="#f9b625" stroke-linecap="round" stroke-linejoin="round" stroke-width="2"/>
      <line id="Line_215" data-name="Line 215" x2="3" transform="translate(-861 -456)" fill="none" stroke="#f9b625" stroke-linecap="round" stroke-linejoin="round" stroke-width="2"/>
      <line id="Line_216" data-name="Line 216" x2="4" transform="translate(-861 -456)" fill="none" stroke="#f9b625" stroke-linecap="round" stroke-linejoin="round" stroke-width="2"/>
      <line id="Line_217" data-name="Line 217" y2="3" transform="translate(-840 -439)" fill="none" stroke="#f9b625" stroke-linecap="round" stroke-linejoin="round" stroke-width="2"/>
      <line id="Line_218" data-name="Line 218" y2="4" transform="translate(-840 -439)" fill="none" stroke="#f9b625" stroke-linecap="round" stroke-linejoin="round" stroke-width="2"/>
      <line id="Line_219" data-name="Line 219" y2="3" transform="translate(-840 -477)" fill="none" stroke="#f9b625" stroke-linecap="round" stroke-linejoin="round" stroke-width="2"/>
      <line id="Line_220" data-name="Line 220" y2="4" transform="translate(-840 -477)" fill="none" stroke="#f9b625" stroke-linecap="round" stroke-linejoin="round" stroke-width="2"/>
      <line id="Line_221" data-name="Line 221" x2="2.613" y2="2.613" transform="translate(-828.24 -444.241)" fill="none" stroke="#f9b625" stroke-linecap="round" stroke-linejoin="round" stroke-width="2"/>
      <line id="Line_222" data-name="Line 222" x2="3.267" y2="3.267" transform="translate(-828.24 -444.241)" fill="none" stroke="#f9b625" stroke-linecap="round" stroke-linejoin="round" stroke-width="2"/>
      <line id="Line_223" data-name="Line 223" x2="2.613" y2="2.613" transform="translate(-855.026 -471.026)" fill="none" stroke="#f9b625" stroke-linecap="round" stroke-linejoin="round" stroke-width="2"/>
      <line id="Line_224" data-name="Line 224" x2="3.267" y2="3.267" transform="translate(-855.026 -471.026)" fill="none" stroke="#f9b625" stroke-linecap="round" stroke-linejoin="round" stroke-width="2"/>
      <line id="Line_225" data-name="Line 225" x1="2.613" y2="2.613" transform="translate(-854.373 -444.241)" fill="none" stroke="#f9b625" stroke-linecap="round" stroke-linejoin="round" stroke-width="2"/>
      <line id="Line_226" data-name="Line 226" x1="3.267" y2="3.267" transform="translate(-855.026 -444.241)" fill="none" stroke="#f9b625" stroke-linecap="round" stroke-linejoin="round" stroke-width="2"/>
      <line id="Line_227" data-name="Line 227" x1="2.613" y2="2.613" transform="translate(-827.587 -471.026)" fill="none" stroke="#f9b625" stroke-linecap="round" stroke-linejoin="round" stroke-width="2"/>
      <line id="Line_228" data-name="Line 228" x1="3.267" y2="3.267" transform="translate(-828.24 -471.026)" fill="none" stroke="#f9b625" stroke-linecap="round" stroke-linejoin="round" stroke-width="2"/>
    </g>
    <g id="Group_2451" data-name="Group 2451" transform="translate(114.563 23)">
      <path id="Path_2384" data-name="Path 2384" d="M28.25,57.944,70.873,20.88,113.5,57.944" transform="translate(-28.25 -20.88)" fill="none" stroke="#1e88c3" stroke-linecap="round" stroke-linejoin="round" stroke-width="3"/>
      <path id="Path_2385" data-name="Path 2385" d="M43.682,22.913V69.24a3.7,3.7,0,0,1-3.7,3.7H32.554" transform="translate(34.154 8.592)" fill="none" stroke="#1e88c3" stroke-linecap="round" stroke-linejoin="round" stroke-width="3"/>
      <path id="Path_2386" data-name="Path 2386" d="M31,60.813" transform="translate(11.623 20.726)" fill="none" stroke="#1e88c3" stroke-linecap="round" stroke-linejoin="round" stroke-width="4"/>
      <rect id="Rectangle_2194" data-name="Rectangle 2194" width="11.119" height="11.119" transform="translate(20.385 44.476)" fill="none" stroke="#1e88c3" stroke-linecap="round" stroke-linejoin="round" stroke-width="1"/>
      <path id="Path_2387" data-name="Path 2387" d="M89.888,72.944H32.432a3.7,3.7,0,0,1-3.7-3.7V22.913" transform="translate(-21.319 8.592)" fill="none" stroke="#1e88c3" stroke-linecap="round" stroke-linejoin="round" stroke-width="3"/>
      <circle id="Ellipse_34" data-name="Ellipse 34" cx="1.435" cy="1.435" r="1.435" transform="translate(63.59 62.094)" fill="#1e88c3"/>
      <g id="Rectangle_2412" data-name="Rectangle 2412" transform="translate(42.937 42)" fill="none" stroke="#1e88c3" stroke-width="1">
        <path d="M10,0h8A10,10,0,0,1,28,10V40a0,0,0,0,1,0,0H0a0,0,0,0,1,0,0V10A10,10,0,0,1,10,0Z" stroke="none"/>
        <path d="M10,.5h8A9.5,9.5,0,0,1,27.5,10V39a.5.5,0,0,1-.5.5H1A.5.5,0,0,1,.5,39V10A9.5,9.5,0,0,1,10,.5Z" fill="none"/>
      </g>
    </g>
  </g>
</svg>
